<mxfile host="app.diagrams.net" agent="Mozilla/5.0 (Windows NT 10.0; Win64; x64) AppleWebKit/537.36 (KHTML, like Gecko) Chrome/138.0.0.0 Safari/537.36" version="28.0.7">
  <diagram name="第 1 页" id="4CZM-l4THoh-fqjmzcx0">
    <mxGraphModel dx="970" dy="611" grid="1" gridSize="10" guides="1" tooltips="1" connect="1" arrows="1" fold="1" page="1" pageScale="1" pageWidth="1169" pageHeight="827" math="0" shadow="0">
      <root>
        <mxCell id="0" />
        <mxCell id="1" parent="0" />
        <mxCell id="Rvd_LpyRWWdYLsu3HXT1-5" value="" style="edgeStyle=orthogonalEdgeStyle;rounded=0;orthogonalLoop=1;jettySize=auto;html=1;" parent="1" source="Rvd_LpyRWWdYLsu3HXT1-2" target="Rvd_LpyRWWdYLsu3HXT1-4" edge="1">
          <mxGeometry relative="1" as="geometry" />
        </mxCell>
        <mxCell id="Rvd_LpyRWWdYLsu3HXT1-2" value="&lt;font style=&quot;font-size: 16px;&quot;&gt;开始&lt;/font&gt;" style="strokeWidth=2;html=1;shape=mxgraph.flowchart.terminator;whiteSpace=wrap;" parent="1" vertex="1">
          <mxGeometry x="170" y="60" width="120" height="50" as="geometry" />
        </mxCell>
        <mxCell id="Rvd_LpyRWWdYLsu3HXT1-7" value="" style="edgeStyle=orthogonalEdgeStyle;rounded=0;orthogonalLoop=1;jettySize=auto;html=1;" parent="1" source="Rvd_LpyRWWdYLsu3HXT1-4" target="Rvd_LpyRWWdYLsu3HXT1-6" edge="1">
          <mxGeometry relative="1" as="geometry" />
        </mxCell>
        <mxCell id="Rvd_LpyRWWdYLsu3HXT1-18" value="否" style="edgeLabel;html=1;align=center;verticalAlign=middle;resizable=0;points=[];fontSize=16;" parent="Rvd_LpyRWWdYLsu3HXT1-7" vertex="1" connectable="0">
          <mxGeometry x="-0.4333" y="3" relative="1" as="geometry">
            <mxPoint as="offset" />
          </mxGeometry>
        </mxCell>
        <mxCell id="Rvd_LpyRWWdYLsu3HXT1-9" value="" style="edgeStyle=orthogonalEdgeStyle;rounded=0;orthogonalLoop=1;jettySize=auto;html=1;" parent="1" source="Rvd_LpyRWWdYLsu3HXT1-4" target="Rvd_LpyRWWdYLsu3HXT1-8" edge="1">
          <mxGeometry relative="1" as="geometry" />
        </mxCell>
        <mxCell id="e1_dU8Ji8Ay3_Zggtcsr-2" value="是" style="edgeLabel;html=1;align=center;verticalAlign=middle;resizable=0;points=[];fontSize=16;" vertex="1" connectable="0" parent="Rvd_LpyRWWdYLsu3HXT1-9">
          <mxGeometry x="-0.3277" y="-3" relative="1" as="geometry">
            <mxPoint as="offset" />
          </mxGeometry>
        </mxCell>
        <mxCell id="Rvd_LpyRWWdYLsu3HXT1-4" value="&lt;font style=&quot;font-size: 16px;&quot;&gt;转换开关&lt;/font&gt;&lt;span style=&quot;font-size: 16px; background-color: transparent; color: light-dark(rgb(0, 0, 0), rgb(255, 255, 255));&quot;&gt;是否&lt;/span&gt;&lt;div&gt;&lt;span style=&quot;font-size: 16px; background-color: transparent; color: light-dark(rgb(0, 0, 0), rgb(255, 255, 255));&quot;&gt;打开&lt;/span&gt;&lt;/div&gt;" style="rhombus;whiteSpace=wrap;html=1;strokeWidth=2;" parent="1" vertex="1">
          <mxGeometry x="160" y="150" width="140" height="80" as="geometry" />
        </mxCell>
        <mxCell id="Rvd_LpyRWWdYLsu3HXT1-6" value="访问数据字典，获取字典值，得到黑名单员工编号列表" style="whiteSpace=wrap;html=1;strokeWidth=2;align=left;" parent="1" vertex="1">
          <mxGeometry x="390" y="160" width="160" height="60" as="geometry" />
        </mxCell>
        <mxCell id="Rvd_LpyRWWdYLsu3HXT1-11" value="" style="edgeStyle=orthogonalEdgeStyle;rounded=0;orthogonalLoop=1;jettySize=auto;html=1;entryX=0.5;entryY=0;entryDx=0;entryDy=0;entryPerimeter=0;" parent="1" source="Rvd_LpyRWWdYLsu3HXT1-8" target="Rvd_LpyRWWdYLsu3HXT1-15" edge="1">
          <mxGeometry relative="1" as="geometry">
            <mxPoint x="230" y="420" as="targetPoint" />
          </mxGeometry>
        </mxCell>
        <mxCell id="Rvd_LpyRWWdYLsu3HXT1-8" value="请求配置中心，获取指定类型的配置项" style="whiteSpace=wrap;html=1;strokeWidth=2;align=left;" parent="1" vertex="1">
          <mxGeometry x="170" y="320" width="120" height="60" as="geometry" />
        </mxCell>
        <mxCell id="Rvd_LpyRWWdYLsu3HXT1-15" value="&lt;font style=&quot;font-size: 16px;&quot;&gt;结束&lt;/font&gt;" style="strokeWidth=2;html=1;shape=mxgraph.flowchart.terminator;whiteSpace=wrap;" parent="1" vertex="1">
          <mxGeometry x="170" y="440" width="120" height="50" as="geometry" />
        </mxCell>
        <mxCell id="e1_dU8Ji8Ay3_Zggtcsr-3" style="edgeStyle=orthogonalEdgeStyle;rounded=0;orthogonalLoop=1;jettySize=auto;html=1;entryX=1.002;entryY=0.692;entryDx=0;entryDy=0;entryPerimeter=0;exitX=0.562;exitY=1;exitDx=0;exitDy=0;exitPerimeter=0;" edge="1" parent="1" source="Rvd_LpyRWWdYLsu3HXT1-6">
          <mxGeometry relative="1" as="geometry">
            <mxPoint x="480" y="230" as="sourcePoint" />
            <mxPoint x="290" y="464.5999999999999" as="targetPoint" />
            <Array as="points">
              <mxPoint x="480" y="465" />
            </Array>
          </mxGeometry>
        </mxCell>
      </root>
    </mxGraphModel>
  </diagram>
</mxfile>
